<svg version="1.1" xmlns="http://www.w3.org/2000/svg" xmlns:xlink="http://www.w3.org/1999/xlink" x="0px" y="0px" viewBox="0 0 48 48" enable-background="new 0 0 48 48" xml:space="preserve">
<rect x="3" y="40" fill="#90A4AE" width="42" height="2"></rect>
<path fill="#1565C0" d="M44,20c-3.8,0-6,3.1-7.5,5.2c-0.3,0.4-0.6,0.9-0.9,1.3c0-0.5-0.1-1.1-0.1-1.5c-0.1-2.6-0.2-4.9-1.9-4.9
	c-1.2,0-2.2,1.3-3.8,3.5c-1.8,2.3-4.2,5.5-6.2,5.5c-0.2,0-0.4-0.1-0.6-0.1c3.7-3.8,5.9-8.8,5.9-12c0-1.1-0.3-2-0.8-2.7
	C27.8,13.6,27,13,25.7,13c-3.6,0-6.7,4.7-6.7,10.4c0,2,0.4,3.9,1.3,5.4c-2,1.7-4.7,3.3-7.9,3.3c-1.2,0-2.2-0.4-3.2-1.1
	C13,25.6,18,17.4,18,10.3C18,5.9,15.5,5,13.4,5C10.3,5,3,9.7,3,21.4c0,3.1,1.3,7,3.5,9.6c-1.8,2.4-3.2,4-3.3,4
	c-0.4,0.4-0.3,1,0.1,1.4c0.2,0.2,0.4,0.3,0.7,0.3c0.3,0,0.5-0.1,0.7-0.3c0.2-0.2,1.5-1.7,3.3-4c1.3,1,2.7,1.6,4.4,1.6
	c3.4,0,6.6-1.5,9.2-3.7c0.6,0.5,1.3,0.7,2.1,0.7c3,0,5.6-3.5,7.8-6.3c0.6-0.8,1.4-1.8,1.9-2.3c0.1,0.7,0.2,1.9,0.2,2.7
	c0.1,2.4,0.1,4,1.5,4c1.2,0,2-1.2,3.1-2.6c1.4-2,3.1-4.4,5.9-4.4c0.6,0,1-0.4,1-1S44.6,20,44,20z M7.7,29.4C6,27.2,5,24,5,21.4
	C5,11.4,11.1,7,13.4,7c2.2,0,2.6,1.3,2.6,3.3C16,16.7,11.4,24.3,7.7,29.4z M21.8,27.3c-0.5-1.1-0.8-2.5-0.8-3.9
	c0-4.7,2.5-8.4,4.7-8.4c0.6,0,0.8,0.2,0.9,0.4c0.2,0.3,0.3,0.8,0.3,1.4c0,2.5-1.8,6.4-4.3,9.4C22.4,26.6,22.1,26.9,21.8,27.3z"></path>
</svg>