<?xml version="1.0" encoding="utf-8"?>
<!-- Generator: Adobe Illustrator 20.1.0, SVG Export Plug-In . SVG Version: 6.00 Build 0)  -->
<svg version="1.1" id="Layer_1" xmlns="http://www.w3.org/2000/svg" xmlns:xlink="http://www.w3.org/1999/xlink" x="0px" y="0px"
	 viewBox="0 0 273.2 140.5" style="enable-background:new 0 0 273.2 140.5;" xml:space="preserve">
<style type="text/css">
	.st0{fill-rule:evenodd;clip-rule:evenodd;fill:#F1686C;}
	.st1{fill-rule:evenodd;clip-rule:evenodd;fill:#FF686B;}
</style>
<polygon class="st0" points="275.4,26.7 275.4,26.7 275.4,27.8 275.4,29 275.4,29 275.4,27.8 275.4,26.7 "/>
<path class="st1" d="M108.9,39.9c1.7,0,3.2-0.7,4.4-1.7h0c1.2-1,2-2.5,2.2-4.1l0.2-1.1c0.2-1.1,0.1-2.2-0.3-3.3v0
	c-0.3-1-0.9-1.9-1.8-2.7c-0.8-0.8-1.8-1.3-2.8-1.6c-1-0.3-2.1-0.3-3.3-0.1c-4.3,0.9-8.4,2.9-12,5.6c-2.2,1.6-4.2,3.6-5.9,5.6
	c0.1-0.8,0.2-1.4,0.3-1.9l0-0.1c0-0.3,0.1-0.6,0.1-0.8l0-0.3c0.1-0.4,0.1-0.8,0.1-1.2c0-0.4,0.1-0.8,0-1.2v0
	c-0.1-1.6-0.5-2.7-1.8-3.5v0c-1.1-0.6-2.7-0.9-5.2-0.7l-3.3,0.1v0h0l-0.1,0c-0.7,0.1-1.4,0.2-2,0.4h0c-0.7,0.2-1.2,0.5-1.7,0.9
	l-1,0.8l0.1,0.1c-0.1,0.2-0.3,0.4-0.4,0.7c-0.3,0.6-0.5,1.3-0.6,2.1l0,0l0,0v0l-2.4,22.4h0L65.4,99l0,0.1c0,0.1,0,0.3,0,0.5l0,0
	l0,0.4c0,0.7,0.1,1.4,0.3,2h0c0.2,0.6,0.6,1.2,1,1.7c0.4,0.5,1,0.8,1.5,1.1c0.6,0.3,1.2,0.4,1.9,0.5h0c0.3,0,0.7,0.1,0.9,0.1h3.4
	c0.8,0,1.6-0.1,2.4-0.3h0c0.7-0.2,1.4-0.6,2-1.1h0c0.6-0.5,1-1.1,1.4-1.8c0.3-0.7,0.5-1.5,0.6-2.3l4.1-27.5
	c0.7-4.8,1.8-9.7,3.5-14.2c1.8-4.5,4.3-8.6,7.9-11.9c1.8-1.7,3.8-3.2,6-4.4C104.4,40.7,106.6,40,108.9,39.9L108.9,39.9z"/>
<path class="st1" d="M188.8,80.9c-0.1-1.1-0.1-2.2-0.1-3.3c0-1.2,0-2.6,0.1-4c0.1-0.9,0.1-1.9,0.3-2.9h0l0.2-1.3
	c0.9-7.1,2.4-13.5,4.6-19c2.2-5.5,5.2-10.2,8.8-14c3.7-3.8,8.1-6.7,13.3-8.7c5.2-1.9,11.1-2.9,17.8-2.9c1.5,0,3.2,0.1,4.8,0.4
	c1.7,0.2,3.3,0.5,4.6,0.8l3-20.4l0-0.1l0,0c0.1-0.8,0.4-1.6,0.7-2.2c0.3-0.7,0.7-1.3,1.3-1.8c0.6-0.5,1.2-0.9,1.9-1.2l0,0
	c0.7-0.2,1.5-0.4,2.4-0.4h4.1c0.9,0,1.7,0.1,2.4,0.4c0.7,0.3,1.4,0.7,1.9,1.3c0.5,0.6,0.8,1.3,1,2c0.2,0.7,0.2,1.5,0.1,2.5v0l0,0.1
	l-10.4,69.4l0,0l-1.5,9.8l-0.2,1.4c-0.3,2.1-0.6,3.9-0.2,4.9c0.3,0.8,1.3,1.3,3.5,1.3c2.3,0,5.1-0.8,7.5-2.1
	c2.1-1.1,3.8-2.7,4.6-4.4l0.5-1.2L267,86c2.9,1.7,4.9,4.8,5.7,8.6c0.9,4,0.6,8.8-1,13.6c-1.6,4.8-4.5,9.7-8.9,13.8
	c-6.7,6.3-16.9,10.9-30.9,10.9h-90.2H78.9c-5.7,0-11.1,0.2-15.9,1.2c-4.7,0.9-8.7,2.5-11.7,5.3c-0.6,0.5-1.3,0.9-2,1h0
	c-0.7,0.1-1.5,0-2.2-0.3l0,0c-0.7-0.3-1.3-0.8-1.7-1.5c-0.4-0.6-0.6-1.4-0.6-2.2c0.2-7.3,3.3-12.9,9.1-16.6c5.7-3.7,14-5.6,24.6-5.6
	h63.1h89.8c6.4,0,11.8-0.2,16-1.6c3.4-1.1,6.1-3.1,8.2-6.4c-3.1,0.6-6,0.8-8.7,0.4c-2.7-0.4-5.2-1.4-7.2-2.9c-2-1.5-3.5-3.7-4.3-6.4
	c-0.4-1.4-0.6-2.9-0.7-4.6c-2.6,3.1-6.2,6.8-10.3,9.6c-3.7,2.6-7.8,4.4-11.9,4.4c-1.1,0-2.3-0.1-3.4-0.2c-3.2-0.4-6-1.4-8.5-2.9
	c-2.5-1.5-4.7-3.5-6.5-6.1l-0.2-0.3c-5.4,6.1-13.5,10.8-21.9,10.2c-3.7-0.3-7.2-1.7-9.7-4.6c-2.2-2.6-3.2-5.5-3.5-8.6
	c-0.3-3-0.1-6.1,0.2-9.1c0.3-2.7,0.6-5.3,0.9-7.9c0.4-2.7,0.7-5.2,1.1-7.7l0,0c0.4-2.3,0.8-4.8,1.4-7.3c1.1-5.3,2.2-11,2.2-15.5
	c0-1.1-0.1-2.2-0.3-3.1h0c-0.2-0.9-0.5-1.6-1-2.3c-0.5-0.7-1.1-1.3-1.9-1.7c-0.8-0.4-1.7-0.8-2.8-1c-0.3-0.1-0.7-0.1-1.1-0.1
	c-0.4,0-0.8,0-1.3,0c-1.7,0-3.6,0.7-5.6,1.8c-2.7,1.5-5.4,3.7-7.6,5.7c-3.6,3.3-6.1,7.4-7.9,11.9c-1.8,4.5-2.8,9.4-3.5,14.2
	l-4.1,27.5c-0.1,0.9-0.3,1.7-0.6,2.3c-0.3,0.7-0.8,1.3-1.4,1.8h0c-0.6,0.5-1.2,0.9-2,1.1h0c-0.7,0.2-1.5,0.3-2.4,0.3h-3.3
	c-0.3,0-0.6,0-0.9-0.1h0c-0.7-0.1-1.3-0.2-1.9-0.5c-0.6-0.3-1.1-0.6-1.5-1.1c-0.5-0.5-0.8-1-1-1.7h0c-0.2-0.6-0.3-1.3-0.3-2l0,0
	l0-0.4v0c0-0.2,0-0.3,0-0.5l0-0.1l6.6-44.7l0,0l2.4-22.4l0-0.1l0,0h0c0.1-0.8,0.3-1.4,0.6-2c0.1-0.2,0.3-0.4,0.4-0.7l-0.1-0.1l1-0.8
	c0.5-0.4,1.1-0.7,1.7-0.9h0c0.6-0.2,1.3-0.3,2-0.4l0.1,0h0v0l3.3-0.1c2.5-0.1,4.1,0.1,5.2,0.7v0c1.3,0.8,1.7,1.9,1.8,3.5v0
	c0,0.4,0,0.8,0,1.2c0,0.4-0.1,0.8-0.1,1.2h0l0,0.4v0l-0.1,0.8l0,0.1c-0.1,0.5-0.2,1.1-0.3,1.9c2.3-2.7,5-5.2,8-7.1
	c4.4-2.8,9.3-4.6,14.3-4.6c1,0,2,0,3,0.1c1,0.1,1.9,0.2,2.9,0.4h0c2.4,0.4,4.6,1.2,6.6,2.2c1.9,1,3.6,2.3,5,3.9
	c1.4,1.6,2.5,3.5,3.2,5.7c0.7,2.1,1,4.5,1,7.1c0,0.9-0.1,1.9-0.2,3c-0.1,1-0.2,2.1-0.4,3.1l0,0l-6,37.1h0l0,0.2
	c-0.4,2.6-0.8,5,0,5.7c1.9,1.7,8.6-2.8,12.5-6.3C188.1,85.3,189,83.3,188.8,80.9L188.8,80.9z M236.7,71.5l0-0.2l4.9-32.3
	c-1.3-0.2-3.1-0.5-5.1-0.8c-1.7-0.2-3.5-0.3-5.3-0.3h-0.7c-3.2,0-6.1,0.4-8.8,1.5c-2.7,1-5.1,2.6-7.1,4.9c-2.2,2.4-4.1,5.5-5.6,9.6
	c-1.5,4.1-2.7,9.1-3.4,15.2l0,0.1l-0.2,1.7l0,0.3c-0.4,3.3-0.6,6.4-0.5,9.2c0.1,2.7,0.5,5.1,1.2,7.1c0.7,1.7,1.6,3.1,3,4
	c1.4,0.9,3.2,1.5,5.6,1.5c1.4,0,3.2-0.8,5.3-2.1c2.4-1.5,5.1-3.6,7.6-6c2.5-2.4,4.8-5,6.5-7.5C235.3,75.1,236.3,73.1,236.7,71.5
	L236.7,71.5z"/>
<path class="st1" d="M55.9,49.6c-1.9,0-3.5-0.8-4.8-2c-1.3-1.3-2.1-3.1-2.3-5c-0.2-1.9-1.8-3.3-3.9-4v0c-1.7-0.6-3.7-0.9-5.8-0.8
	c-2.1,0.1-4.3,0.5-6.3,1.3c-3.6,1.4-6.5,3.9-6.9,7.4C25,52.8,31.6,55.1,39,57.7c10.5,3.7,22.4,7.9,21.1,23.9h0l-0.2,1.3
	c-0.5,3.8-1.5,7.2-3.2,10.2c-1.7,3-3.9,5.6-6.7,7.7c-6,4.5-16.2,6.9-25.9,6.3c-8.8-0.5-17.1-3.4-21.4-9.1c-1.2-1.5-2-3.3-2.4-5
	c-0.5-1.9-0.5-3.8,0-5.5c0.5-1.8,1.5-3.4,3.1-4.6c1.1-0.8,2.3-1.4,3.9-1.8c2.3-0.6,4.2-0.3,5.8,0.7c1.7,1,2.9,2.7,3.7,5h0
	c0.3,0.8,0.7,1.6,1.1,2.2c1.8,2.8,4.9,4.1,8.3,4.6c3.5,0.5,7.3-0.1,10.4-1.2v0c1.4-0.5,2.6-1.1,3.6-1.8c1.1-0.8,2.1-1.7,2.8-3
	c0.7-1.2,1.1-2.5,1.3-4.2l0-0.1c0.9-7.2-6.1-9.7-13.9-12.5C20,67.1,8.1,63,10.1,46.8c0.8-7,4.4-12.2,9.3-15.8
	c3.6-2.7,8-4.5,12.6-5.5c4.6-1,9.3-1.2,13.8-0.7c7.1,0.9,13.4,3.6,16.7,8c1.9,2.6,2.9,5.5,2.9,8.2c0,1.3-0.3,2.6-0.8,3.8v0
	c-0.5,1.2-1.3,2.2-2.4,3C60.6,48.9,58.5,49.6,55.9,49.6L55.9,49.6z"/>
</svg>
